<svg width="30" height="30" viewBox="0 0 30 30" fill="none" xmlns="http://www.w3.org/2000/svg">
<path d="M23.75 3.75H6.25C4.86875 3.75 3.75 4.86875 3.75 6.25V23.75C3.75 25.1313 4.86875 26.25 6.25 26.25H15.7763V17.5487H12.8475V14.1425H15.7763V11.6363C15.7763 8.73125 17.5525 7.1475 20.145 7.1475C21.0187 7.145 21.8913 7.19 22.76 7.27875V10.3163H20.975C19.5625 10.3163 19.2875 10.9837 19.2875 11.9688V14.1375H22.6625L22.2237 17.5437H19.2675V26.25H23.75C25.1313 26.25 26.25 25.1313 26.25 23.75V6.25C26.25 4.86875 25.1313 3.75 23.75 3.75Z" fill="white"/>
</svg>
